<svg height="83" viewBox="0 0 607 83" width="607" xmlns="http://www.w3.org/2000/svg"><g fill="#175c89"><path d="m223.83 21.56v24.61c0 10.75-3.46 23-15.71 23-21.85 0-21.38-35.25 0-35.25 4.39 0 9.94 1 12.48 4.86 2.77-5 .34-16.38-14.45-17-1.51289-.0488679-3.027303.0179936-4.53.2h-40.62v-21.46c-7.51-.11-14.56 3.24-14.56 11.79v9.69h-36.11c3.812981 3.0109133 6.011352 7.6219487 5.95 12.48 2.24.08 30.16 0 30.16 0v34.55c0 19.53 31.44 13.64 25.54-1.61-2.19 3.58-11 4.62-11-.24v-32.68h20.64c-3.174441 5.0477997-4.81742 10.9076417-4.73 16.87 0 29 29.47 40.8 46.92 23.46v6.59h15v-59.86z"/><path d="m116.28 46.17c0 10.75-3.46 23-15.71 23-21.85 0-21.38-35.25 0-35.25 4.39 0 9.93 1 12.48 4.86 2.77-5 .34-17.61-14.45-18.73-14.86-.88-24.38 10.38-33.3 19.53-24.11 26.11-28.53 26.85-49.21 26.82v-50.51h12.91c4.0724817.063535 8.0326118 1.3452658 11.37 3.68.49.34 1 .69 1.42 1.06.45.37.88.75 1.29 1.15.6264233.6219495 1.2047502 1.2905354 1.73 2 6.52 8.76 6 24.17 1.38 32.08 3.63-2.83 15.24-14.65 18.9-19.09-.5173728-7.3179456-2.8436316-14.3929335-6.77-20.59l-.45-.64-.56-.8c-.22-.3-.45-.6-.69-.9-.19-.24-.37-.49-.57-.72s-.51-.61-.77-.91-.38-.43-.58-.64-.57-.6-.87-.89l-.57-.56c-.31-.3-.64-.59-1-.87l-.58-.5c-.34-.28-.69-.55-1.05-.82-.13-.1-.25-.21-.38-.3-1.2965176-.98652119-2.6710387-1.86608095-4.11-2.63-4.51-2.31-9.83-4.51-16.76-4.51h-15.14c-10.17 0-13.52 5.9-13.52 13.76v67.14c11.32 0 32.47.46 40.56-2 13.19-3.59 25.72-24.39 28.11-27.29.49 28.47 29.59 39.92 46.89 22.73v6.59h15v-45.42h-15zm211.37-11.17c8.23 0 10.05-6.39 10.05-12.34h-13.25v-21.21c-7.43-.11-14.4 3.2-14.4 11.66v9.59h-7.31v12.3h7.31v34.17c0 19.31 31.08 13.48 25.25-1.6-2.17 3.54-10.85 4.57-10.85-.23v-32.34zm42.77-14.35c-4.92.23-9.14 3.65-11.66 8.91v-7.56h-12.76v59.41h14.85v-24c0-3 0-6.74.23-10.4 1.14-12.91 16.11-15.88 18.85-8.34 6.6-4.88 3.17-18.82-9.51-18.02zm50.58 26.73c-5.71.58-12.57.92-17.26-3.08-4.57 11.31 6.86 18.4 23.31 14.28 24.15-5.94 17.95-37.93-10.24-37.93-8.45 0-17.14 2.51-23.19 9-16.69 17.49-8.69 53 21.93 53 11 0 19.54-3.77 25.71-13l-12-5.83c-4.402482 4.5462698-10.757444 6.6396689-17 5.6-8.11-1.37-13.14-9.94-12.91-18.51.23-10.29 8-17.6 16.68-18.06 12.21-.66 19.52 13.28 4.97 14.53zm72.36-18.85v18c0 10.63-3.43 22.74-15.54 22.74-21.59 0-21.14-34.85 0-34.85 4.34 0 9.83 1 12.34 4.8 2.74-4.91.34-17.94-14.28-18.51-15-.57-28.91 12.57-28.91 31 0 28.68 29.14 40.33 46.39 23.19v6.51h14.85v-59.16h-14.85zm107.97-1.6c-4.405806-4.3576787-10.507882-6.5526699-16.68-6-7.2.34-16.11 4.45-17.14 11.08-.795328-1.8512635-1.916431-3.544772-3.31-5-4.262972-4.3620614-10.26717-6.5667855-16.34-6-5.37.34-13.6 2.85-16 8.22v-6.87h-14.86v59.07h14.85v-44.33c.832362 2.2062686 2.530312 3.9764724 4.7 4.9 0-4.57 3.08-7.65 8.34-7.65 4 0 7.65 2.51 8.91 7.31 1.49 5.49.92 32.11.92 39.76h14.62v-39.06c0-1.26 0-2.4-.11-3.55.938085 1.4361805 2.291524 2.5524185 3.88 3.2-.11-4.57 4-8.22 9.26-8.11 4.68.23 7.54 3 8.34 7.77.91 5.6.91 32.11.91 39.76h14.86v-39.07c0-6.74-1.716667-11.8833333-5.15-15.43zm-331.77-2.26c-6.08-8 13.59-16 22 .55 7.3-4.87 6.53-12.49 1-17.58-3.87-3.64-10.28-5.74-17.36-5.74-11.27 0-21.33 8-21.33 19.56 0 15.14 20.45 24.76 27.75 34.05 6.74 8.51-1 15.14-9.95 12.71-5.09-1.44-11.17-7.08-13.82-12.6l-11.61 8.51c5.64 11.05 17.14 18.79 28.85 18.79 19.79 0 27.86-17.47 21.89-30.84-4.76-10.28-21.9-20.34-27.42-27.41z"/></g></svg>