<svg height="112" viewBox="0 0 313 112" width="313" xmlns="http://www.w3.org/2000/svg"><g fill="none"><g fill="#c41230"><path d="m65.3 67.2c-.2-.3-.3-.7-.5-1v-.1c-2.1-.1-8.4-.4-16.2.1-2.3.2-4.8.4-7.4.7.2.8.3 1.6.6 2.4.7 2.3 1.8 4.6 3.1 6.7 6.3-3.5 12-5.9 16-7.4 2-.7 3.5-1.2 4.4-1.4zm19.5 27.7v-.2c-4.1.8-8.7.9-13.3.2-.9 5.1-2.3 10.5-4.1 15.3h17.6c.7-5.4.5-10.6-.2-15.3zm-8.1-21.6c-.2-.3-.4-.6-.5-.9-.1-.2-.2-.3-.3-.5-.7.1-1.4.1-2.2.1v1.1c-.1 3.4-.5 11.1-1.9 19.8.2 0 .4 0 .6.1 4.2.6 8.3.5 12.1-.2-1.7-8.5-5.1-15.2-7.3-18.8-.2-.2-.4-.4-.5-.7zm3.4-9.9c.3-.1.6-.1 1-.2 2.7-.5 7.7-1.1 12.6-.3.9.1 1.8.3 2.7.6 0 0 0-.1-.1-.1-1.8-2.4-4-4.7-6.7-6.8-1.1-.8-2.3-1.6-3.5-2.3-.2-.1-.4-.3-.7-.4-2.1 1.2-5.4 4.8-7.2 7-.1.1-.2.2-.3.4.1.1.2.2.4.3.7.5 1.3 1.1 1.8 1.8zm2.1 1.6c-.2 0-.4.1-.6.1s-.4.1-.6.1c.1.4.2.8.2 1.2.3.1.9.3 1.6.6 1.2.5 2.8 1.2 4.6 2.2 3.8 2 8.7 5.1 13.3 9.4.1-.5.2-1.1.2-1.6.2-2.2-.1-4.4-.8-6.7-.5-1.4-1.1-2.8-1.9-4.1-1.7-.7-3.5-1.2-5.3-1.4-4.1-.6-8.2-.2-10.7.2zm13.6 25.5c-.1-.1-.1-.2-.2-.4-2.5 1.9-5.6 3.3-9.1 4.1.8 4.8 1.1 10.2.3 15.9h11.2c1.8-7.2.5-13.9-2.2-19.6z"/><path d="m149.1 80.3s10.7-21.5 11.2-22.9c0 0 .2-.4-.3-.3-1.7.5-13.4 5.2-18.9 5.2-7.2 0-7.9-12.4-7.8-14.7 0-.4-.3-.8-.6-.1s-1.5 2.8-3.4 5.5c-2.8 4.3-6.9 10.2-10.3 14.9-1.1 1.6-2.7 1.6-2.2-1.6s6.5-40.7 6.5-41c.1-.3-.1-.4-.3-.2-3.9 6.6-9.5 10.9-16.1 0-.8-1.4-4.2-7.6-7.6-15.1-1.2-2.7-2.5-5.6-3.6-8.5-.1-.1-.1-.3-.2-.4l-.2-.2h-.1-.1-.1-.1s-.1.1-.1.2c-.1.1-.1.2-.2.4-1.1 2.9-2.4 5.8-3.6 8.5-3.4 7.5-6.8 13.7-7.6 15-6.1 11-12.4 6.7-16.1 0-.2-.2-.3-.1-.3.2.3 1.7 1.8 11.3 3.1 19.8.2.1.5.1.7.2 3.2.8 6.5 1.9 9.8 3.5.3.2.6.3 1 .4 1.5.8 3 1.6 4.4 2.4.8.4 1.5.8 2.3 1.3 4.1 2.4 7.8 5.2 11.1 8.4 12.7 12.4 18.7 30.3 15.7 48.8h17.7c18.6-2.6 29.1-17.8 29.4-18.2.5-.6-.1-.4-.1-.4-7.7.7-17.8-1.1-13-11.1zm-78.4-8.9c-.3-.1-.5-.2-.7-.3-.2.2-.3.4-.5.6-1.1 1.4-2.3 2.9-3.5 4.5-2.8 3.6-5.9 7.6-8.9 11.6.8.5 1.6.9 2.4 1.3 1.8.9 3.7 1.7 5.6 2.3 1.6.5 3.2 1 4.8 1.3 1.5-8.9 1.8-16.9 1.9-19.9v-1c-.4-.1-.7-.2-1.1-.4z"/><path d="m100.1 80.7c-4.5-4.4-9.3-7.5-13.2-9.5-1.8-.9-3.3-1.7-4.5-2.2-.5-.2-.9-.4-1.2-.5-.1-.1-.3-.1-.4-.2-.1.4-.3.8-.6 1.1.4.3.9.7 1.4 1.1 1 .8 2.3 1.8 3.6 3.1 3.5 3.2 7.8 7.8 10.9 13.5l.4-.4c.9-1 1.7-2 2.3-3.2.7-.9 1-1.8 1.3-2.8zm-30.6 13.9c-1.7-.3-3.4-.8-5.1-1.3-2-.6-3.9-1.4-5.8-2.4-.8-.4-1.7-.9-2.5-1.4-.1 0-.2-.1-.3-.1-5.2 6.9-10 13.5-12.5 17.5-.5-.3-1.1-.7-1.6-1v-.1c2.7-4.3 7.6-11 12.5-17.5-4-2.7-7.4-6-9.9-9.7-1.6.9-3.2 1.9-4.8 2.9.1.3.2.5.2.8 2.3 8.7-4.6 11.6-12.6 9.6 4-4.1 8.2-7.5 12.3-10.4 0 0-.3-.6-.9-1.6 1.6-1 3.2-2 4.7-2.9 0 0 0-.1-.1-.1-1.4-2.2-2.4-4.6-3.2-7-.3-.9-.5-1.8-.7-2.7-2.4.4-4.9.8-7.3 1.4 2.5 4.4 5.2 8.9 6.5 11.3-4.2 2.9-8.4 6.3-12.5 10.5-2-3-3.5-6.2-4.5-9.4-.9-2.8-1.3-5.6-1.3-8.2 3.7-1.8 7.7-3.1 11.8-4.1-.3-.6-.7-1.2-1-1.8-3.7.9-7.3 2.1-10.7 3.7.3-3.6 1.3-6.9 3-10 .7-1.1 1.4-2.2 2.2-3.3.6 1.1 2.9 5.1 5.5 9.6 1-.2 2-.5 3.1-.7h.1c1.6-.3 3.2-.6 4.8-.8.1-1.4 0-2.7.1-3.9.6.2 1.3.3 1.9.4v.4c0 .8 0 1.7.1 2.6 4.6-.6 8.9-.9 12.6-1 5-.1 9 0 10.9.1 0-.5.1-.9.2-1.4-1.5-1.2-5.5-3.2-10.8-5-1.5 2.9-4 5.1-8.1 4.9-1.5-.1-3.2-.3-4.9-.7.1-2.4.8-4.5 1.9-6.5 4 .4 7.8 1.3 11.1 2.3.3-.6.6-1.1.8-1.7 4.9 1.7 8.9 3.6 11 5.1 0-.1.1-.1.1-.2.8-.8 1.9-1.4 3.1-1.7.1 0 .2-.1.3-.1.5-.1 1-.2 1.6-.2-.9-2.6-3.8-9-10.2-12.6 0 0 1.7 0 2.6.1 2.5.3 5 .8 7.5 1.4.9 6 1.7 10.8 1.7 11.2.6.1 1.2.2 1.8.4.2.1.5.1.7.2.5.2.9.4 1.4.6l.2-.2c1.3-1.6 4.5-5.3 7.2-7.2-.5-.3-1.1-.6-1.6-.9-3-1.4-6-2.6-9.1-3.5-.2-.1-.4-.1-.6-.2-.1 0-.2 0-.3-.1-.5-.1-.9-.3-1.4-.4-.1-.8-.3-1.7-.4-2.5-12.5-3.1-25.3-2.2-35.1 2.4-7 2.6-13.1 6.7-18 12.1-1.1.8-2.1 1.7-3 2.7-9.9 10.4-12.8 22.7-13.2 32.8v.7c-.1 5.9.6 11 1.3 14.4h1.9c-.7-3.3-1.5-8.6-1.4-14.8.5-4.5 2-8.6 4.3-12.1-.7 8.9.7 18.6 4.1 26.9h2.5c3.5-6.6 7.5-12.1 11.9-16.9 3.8 5.3 8.9 10.1 15 14.1-.7 1-1.3 1.9-1.8 2.8h2.2c.4-.5.7-1.1 1.1-1.8 1 .6 2 1.2 3.1 1.8h19.8c2.2-4.8 3.6-10.3 4.5-15.6zm-13.1-48c0 .7-.1 5.3-1.7 9.3-3.3-1-6.9-1.8-10.7-2.3 3-3.8 7.2-6.2 12.4-7zm-20.7 2.7c4.8-1.8 10-3 15.4-3.3-3.8 1.5-7 4-9.3 7.4-4-.3-8.8-.2-13.6.9 2.2-1.9 4.7-3.6 7.5-5zm5.1 6c-1 1.9-1.5 4-1.7 6.2-5.8-1.4-11.6-3.7-13.2-4.4 5-1.8 10.3-2.1 14.9-1.8zm-22.2 5.6c1.2-.9 2.4-1.6 3.6-2.3l-.6.9c-2.1 3.7-3.2 7.7-3.3 12-2.4 1.3-4.7 2.7-6.8 4.4-.5.4-.9.8-1.4 1.2.8-3.4 1.9-6.5 3.4-9.2 1.5-2.5 3.2-4.9 5.1-7zm-14.3 23.7c1.1-4.7 3-9.6 6-14.3-1.2 2.8-2 6-2.5 9.3-1.4 1.6-2.6 3.3-3.5 5zm8.4 23.8c-3.4-8.7-4.5-19-3.2-27.9 1-1.1 2-2.1 3.2-3.1 1.7-1.4 3.6-2.7 5.6-3.8.1 2.6.6 5.2 1.4 7.8 1.1 3.5 2.8 7 4.9 10.3-4.3 4.7-8.4 10.2-11.9 16.7z"/><path d="m84.2 75.1c-1.4-1.3-2.8-2.4-3.8-3.2-.2-.2-.4-.3-.6-.4-.3-.3-.7-.5-.9-.7-.4.2-.8.5-1.2.6.3.4.5.9.9 1.4 0 .1.1.1.1.2 2.2 3.7 5.7 10.6 7.5 19.4.2 0 .3-.1.4-.1 3.1-.8 5.9-2.1 8.1-3.9-2.9-5.6-7.1-10.1-10.5-13.3zm17.4 7.1c-.3.7-.6 1.5-1 2.2-.9 1.7-2.1 3.2-3.5 4.5 2.7 5.6 4.3 12.2 3.1 19.5l.7-.7c1.4-1.5 2.7-3.1 3.7-5 1.9-3.6 3.1-7.4 3.5-11.3-1.7-3.3-3.9-6.3-6.2-8.8 0-.1-.1-.2-.3-.4zm6-.7c0-.2-.1-.3-.1-.5-.2-.7-.4-1.4-.6-2.2-1-3.2-2.5-6.2-4.4-9.2-.3-.5-.6-1-1-1.4-.1-.1-.2-.1-.3-.2.2.5.4 1.1.6 1.6 1.1 3.5 1.3 7.1.4 10.5 2.2 2.3 4.3 4.8 6.1 7.7 0-.6 0-1.3-.1-1.9 0-1.4-.3-2.9-.6-4.4zm3.1 16.3c-.3-1.1-.7-2.1-1.1-3.1-.6 3.1-1.7 6.1-3.3 9-1.3 2.5-3.1 4.7-5.2 6.6h11c.3-4.6-.3-8.8-1.4-12.5zm-3.1-22.5c.4 1 .8 2 1.1 3 1.4 4.3 1.9 8.6 1.5 12.9.2.4.4.9.6 1.4 1.6 3.5 2.7 7.4 3.1 11.8.6-8.9-1-17.5-4.5-25.3-.5-1.3-1.1-2.6-1.8-3.8zm-39.3-5.1c-.3-.2-.6-.4-.9-.7h-.1c-.2-.2-.4-.4-.6-.5l-.2-.2c-.1 0-.1 0-.2.1-.8.2-2.4.8-4.6 1.6-3.8 1.4-9.4 3.8-15.5 7.1 0 0-.1 0-.1.1 2.5 3.5 5.7 6.7 9.4 9.2l.1-.1c5.5-7.2 10.7-13.8 12.4-16.1.1-.2.2-.4.3-.5z"/></g><g fill="#000" transform="translate(174 57)"><path d="m4.2 2.9h-4.2v-2.8h11.4v2.8h-4.2v10.9h-3zm9.9-2.8h3v5.4h5.6v-5.4h3v13.7h-3v-5.5h-5.6v5.5h-3zm14.2 0h10.4v2.7h-7.4v2.8h6.5v2.7h-6.5v2.9h7.5v2.7h-10.5z"/><path d="m.1 26.8c0-3.9 3-7.1 7.2-7.1 2.5 0 4 .7 5.4 1.9l-1.9 2.3c-1.1-.9-2-1.4-3.6-1.4-2.2 0-3.9 1.9-3.9 4.3 0 2.5 1.7 4.4 4.2 4.4 1.1 0 2.1-.3 2.8-.8v-2h-3v-2.6h6v6c-1.4 1.2-3.4 2.2-5.9 2.2-4.4-.2-7.3-3.2-7.3-7.2zm15.6 0c0-3.9 3.1-7.1 7.3-7.1s7.3 3.2 7.3 7.1-3.1 7.1-7.3 7.1c-4.3-.1-7.3-3.2-7.3-7.1zm11.4 0c0-2.4-1.7-4.4-4.2-4.4-2.4 0-4.1 1.9-4.1 4.3s1.7 4.3 4.2 4.3c2.4.1 4.1-1.9 4.1-4.2zm6-6.9h6.3c1.7 0 3.1.5 4 1.4.8.8 1.2 1.8 1.2 3.1 0 2.2-1.2 3.6-2.9 4.3l3.4 4.9h-3.5l-2.9-4.4h-2.3v4.4h-3v-13.7zm6.1 6.7c1.5 0 2.3-.8 2.3-1.9 0-1.3-.9-2-2.4-2h-3v3.9zm8.6-6.7h5.4c4.3 0 7.3 3 7.3 6.8 0 3.9-3 6.9-7.3 6.9h-5.4zm5.3 11c2.5 0 4.1-1.7 4.1-4.1s-1.7-4.1-4.1-4.1h-2.3v8.3h2.3zm9.5-4.1c0-3.9 3.1-7.1 7.3-7.1s7.3 3.2 7.3 7.1-3.1 7.1-7.3 7.1c-4.3-.1-7.3-3.2-7.3-7.1zm11.4 0c0-2.4-1.7-4.4-4.2-4.4-2.4 0-4.1 1.9-4.1 4.3s1.7 4.3 4.2 4.3c2.5.1 4.1-1.9 4.1-4.2zm5.9-6.9h2.8l6.4 8.5v-8.5h3v13.7h-2.6l-6.6-8.7v8.7h-3z"/><path d="m.1 39.7h10.5v2.7h-7.4v2.9h6.5v2.7h-6.5v5.3h-3v-13.6zm12.3 6.9c0-3.9 3.1-7.1 7.3-7.1s7.3 3.2 7.3 7.1-3.1 7.1-7.3 7.1c-4.2-.1-7.3-3.2-7.3-7.1zm11.5 0c0-2.4-1.7-4.4-4.2-4.4-2.4 0-4.1 1.9-4.1 4.3s1.7 4.3 4.2 4.3c2.4 0 4.1-1.9 4.1-4.2zm5.9.9v-7.8h3v7.8c0 2.2 1.1 3.4 3 3.4 1.8 0 3-1.1 3-3.3v-7.9h3v7.7c0 4.2-2.3 6.2-6 6.2s-6-2-6-6.1zm15.6-7.8h2.8l6.4 8.5v-8.5h3v13.7h-2.6l-6.6-8.7v8.7h-3zm16 0h5.4c4.3 0 7.3 3 7.3 6.8 0 3.9-3 6.9-7.3 6.9h-5.4zm5.4 11c2.5 0 4.1-1.7 4.1-4.1s-1.7-4.1-4.1-4.1h-2.3v8.3h2.3zm14-11.1h2.8l5.9 13.8h-3.2l-1.3-3.1h-5.8l-1.3 3.1h-3.1zm3.1 8-1.8-4.5-1.8 4.5zm9.3-5.1h-4.2v-2.8h11.4v2.8h-4.2v10.9h-3zm9.7-2.8h3v13.7h-3zm6 6.9c0-3.9 3.1-7.1 7.3-7.1s7.3 3.2 7.3 7.1-3.1 7.1-7.3 7.1c-4.2-.1-7.3-3.2-7.3-7.1zm11.5 0c0-2.4-1.7-4.4-4.2-4.4-2.4 0-4.1 1.9-4.1 4.3s1.7 4.3 4.2 4.3c2.4 0 4.1-1.9 4.1-4.2zm5.6-6.9h2.8l6.4 8.5v-8.5h3v13.7h-2.6l-6.6-8.7v8.7h-3z"/></g></g></svg>